<svg id="visual" viewBox="0 0 1920 1200" width="1920" height="1200" xmlns="http://www.w3.org/2000/svg" xmlns:xlink="http://www.w3.org/1999/xlink" version="1.1"><path d="M0 560L274 560L274 510L549 510L549 644L823 644L823 674L1097 674L1097 590L1371 590L1371 611L1646 611L1646 677L1920 677L1920 681L1920 0L1920 0L1646 0L1646 0L1371 0L1371 0L1097 0L1097 0L823 0L823 0L549 0L549 0L274 0L274 0L0 0Z" fill="#000609"></path><path d="M0 349L274 349L274 449L549 449L549 502L823 502L823 439L1097 439L1097 275L1371 275L1371 304L1646 304L1646 506L1920 506L1920 499L1920 0L1920 0L1646 0L1646 0L1371 0L1371 0L1097 0L1097 0L823 0L823 0L549 0L549 0L274 0L274 0L0 0Z" fill="#707273"></path><path d="M0 233L274 233L274 193L549 193L549 235L823 235L823 292L1097 292L1097 224L1371 224L1371 217L1646 217L1646 311L1920 311L1920 263L1920 0L1920 0L1646 0L1646 0L1371 0L1371 0L1097 0L1097 0L823 0L823 0L549 0L549 0L274 0L274 0L0 0Z" fill="#efefef"></path></svg>