<svg id="visual" viewBox="0 0 1920 1200" width="1920" height="1200" xmlns="http://www.w3.org/2000/svg" xmlns:xlink="http://www.w3.org/1999/xlink" version="1.1"><path d="M0 391L45.7 382.8C91.3 374.7 182.7 358.3 274.2 345.5C365.7 332.7 457.3 323.3 548.8 340.3C640.3 357.3 731.7 400.7 823 414.7C914.3 428.7 1005.7 413.3 1097 410.2C1188.3 407 1279.7 416 1371.2 410.2C1462.7 404.3 1554.3 383.7 1645.8 388.8C1737.3 394 1828.7 425 1874.3 440.5L1920 456L1920 0L1874.3 0C1828.7 0 1737.3 0 1645.8 0C1554.3 0 1462.7 0 1371.2 0C1279.7 0 1188.3 0 1097 0C1005.7 0 914.3 0 823 0C731.7 0 640.3 0 548.8 0C457.3 0 365.7 0 274.2 0C182.7 0 91.3 0 45.7 0L0 0Z" fill="#050a59"></path><path d="M0 337L45.7 328.7C91.3 320.3 182.7 303.7 274.2 316C365.7 328.3 457.3 369.7 548.8 383C640.3 396.3 731.7 381.7 823 372.8C914.3 364 1005.7 361 1097 364.2C1188.3 367.3 1279.7 376.7 1371.2 361.8C1462.7 347 1554.3 308 1645.8 311C1737.3 314 1828.7 359 1874.3 381.5L1920 404L1920 0L1874.3 0C1828.7 0 1737.3 0 1645.8 0C1554.3 0 1462.7 0 1371.2 0C1279.7 0 1188.3 0 1097 0C1005.7 0 914.3 0 823 0C731.7 0 640.3 0 548.8 0C457.3 0 365.7 0 274.2 0C182.7 0 91.3 0 45.7 0L0 0Z" fill="#4c3d7d"></path><path d="M0 319L45.7 306.3C91.3 293.7 182.7 268.3 274.2 251C365.7 233.7 457.3 224.3 548.8 216.3C640.3 208.3 731.7 201.7 823 214.5C914.3 227.3 1005.7 259.7 1097 268.2C1188.3 276.7 1279.7 261.3 1371.2 252.7C1462.7 244 1554.3 242 1645.8 232.8C1737.3 223.7 1828.7 207.3 1874.3 199.2L1920 191L1920 0L1874.3 0C1828.7 0 1737.3 0 1645.8 0C1554.3 0 1462.7 0 1371.2 0C1279.7 0 1188.3 0 1097 0C1005.7 0 914.3 0 823 0C731.7 0 640.3 0 548.8 0C457.3 0 365.7 0 274.2 0C182.7 0 91.3 0 45.7 0L0 0Z" fill="#8274a2"></path><path d="M0 211L45.7 197.7C91.3 184.3 182.7 157.7 274.2 147.5C365.7 137.3 457.3 143.7 548.8 147.5C640.3 151.3 731.7 152.7 823 163.3C914.3 174 1005.7 194 1097 202.5C1188.3 211 1279.7 208 1371.2 192.5C1462.7 177 1554.3 149 1645.8 151C1737.3 153 1828.7 185 1874.3 201L1920 217L1920 0L1874.3 0C1828.7 0 1737.3 0 1645.8 0C1554.3 0 1462.7 0 1371.2 0C1279.7 0 1188.3 0 1097 0C1005.7 0 914.3 0 823 0C731.7 0 640.3 0 548.8 0C457.3 0 365.7 0 274.2 0C182.7 0 91.3 0 45.7 0L0 0Z" fill="#b8b0c8"></path><path d="M0 144L45.7 143.7C91.3 143.3 182.7 142.7 274.2 137C365.7 131.3 457.3 120.7 548.8 107.7C640.3 94.7 731.7 79.3 823 73.5C914.3 67.7 1005.7 71.3 1097 80.8C1188.3 90.3 1279.7 105.7 1371.2 109.7C1462.7 113.7 1554.3 106.3 1645.8 97.8C1737.3 89.3 1828.7 79.7 1874.3 74.8L1920 70L1920 0L1874.3 0C1828.7 0 1737.3 0 1645.8 0C1554.3 0 1462.7 0 1371.2 0C1279.7 0 1188.3 0 1097 0C1005.7 0 914.3 0 823 0C731.7 0 640.3 0 548.8 0C457.3 0 365.7 0 274.2 0C182.7 0 91.3 0 45.7 0L0 0Z" fill="#efefef"></path></svg>