<svg id="visual" viewBox="0 0 1920 1200" width="1920" height="1200" xmlns="http://www.w3.org/2000/svg" xmlns:xlink="http://www.w3.org/1999/xlink" version="1.1"><path d="M0 338L53.3 340.5C106.7 343 213.3 348 320 363C426.7 378 533.3 403 640 409.3C746.7 415.7 853.3 403.3 960 410.2C1066.7 417 1173.3 443 1280 431.3C1386.7 419.7 1493.3 370.3 1600 345C1706.7 319.7 1813.3 318.3 1866.7 317.7L1920 317L1920 0L1866.7 0C1813.3 0 1706.7 0 1600 0C1493.3 0 1386.7 0 1280 0C1173.3 0 1066.7 0 960 0C853.3 0 746.7 0 640 0C533.3 0 426.7 0 320 0C213.3 0 106.7 0 53.3 0L0 0Z" fill="#191919"></path><path d="M0 291L53.3 295.7C106.7 300.3 213.3 309.7 320 320.5C426.7 331.3 533.3 343.7 640 355.3C746.7 367 853.3 378 960 376.3C1066.7 374.7 1173.3 360.3 1280 340.2C1386.7 320 1493.3 294 1600 290.7C1706.7 287.3 1813.3 306.7 1866.7 316.3L1920 326L1920 0L1866.7 0C1813.3 0 1706.7 0 1600 0C1493.3 0 1386.7 0 1280 0C1173.3 0 1066.7 0 960 0C853.3 0 746.7 0 640 0C533.3 0 426.7 0 320 0C213.3 0 106.7 0 53.3 0L0 0Z" fill="#585858"></path><path d="M0 252L53.3 241.5C106.7 231 213.3 210 320 208C426.7 206 533.3 223 640 237.3C746.7 251.7 853.3 263.3 960 260.2C1066.7 257 1173.3 239 1280 228C1386.7 217 1493.3 213 1600 216.5C1706.7 220 1813.3 231 1866.7 236.5L1920 242L1920 0L1866.7 0C1813.3 0 1706.7 0 1600 0C1493.3 0 1386.7 0 1280 0C1173.3 0 1066.7 0 960 0C853.3 0 746.7 0 640 0C533.3 0 426.7 0 320 0C213.3 0 106.7 0 53.3 0L0 0Z" fill="#a0a0a0"></path><path d="M0 134L53.3 131C106.7 128 213.3 122 320 128.5C426.7 135 533.3 154 640 160.7C746.7 167.3 853.3 161.7 960 144.7C1066.7 127.7 1173.3 99.3 1280 88.8C1386.7 78.3 1493.3 85.7 1600 88.5C1706.7 91.3 1813.3 89.7 1866.7 88.8L1920 88L1920 0L1866.7 0C1813.3 0 1706.7 0 1600 0C1493.3 0 1386.7 0 1280 0C1173.3 0 1066.7 0 960 0C853.3 0 746.7 0 640 0C533.3 0 426.7 0 320 0C213.3 0 106.7 0 53.3 0L0 0Z" fill="#efefef"></path></svg>