<svg id="visual" viewBox="0 0 960 540" width="960" height="540" xmlns="http://www.w3.org/2000/svg" xmlns:xlink="http://www.w3.org/1999/xlink" version="1.1"><path d="M0 413L22.8 402.3C45.7 391.7 91.3 370.3 137 378.8C182.7 387.3 228.3 425.7 274 443.8C319.7 462 365.3 460 411.2 457.7C457 455.3 503 452.7 548.8 436.7C594.7 420.7 640.3 391.3 686 390.2C731.7 389 777.3 416 823 424.3C868.7 432.7 914.3 422.3 937.2 417.2L960 412L960 541L937.2 541C914.3 541 868.7 541 823 541C777.3 541 731.7 541 686 541C640.3 541 594.7 541 548.8 541C503 541 457 541 411.2 541C365.3 541 319.7 541 274 541C228.3 541 182.7 541 137 541C91.3 541 45.7 541 22.8 541L0 541Z" fill="#efefef" stroke-linecap="round" stroke-linejoin="miter"></path></svg>