<svg width="71" height="71" viewBox="0 0 71 71" fill="none" xmlns="http://www.w3.org/2000/svg">
<g id="Down">
<path id="Vector" d="M35.5 52.9726C35.1992 52.973 34.9015 52.9122 34.625 52.794C34.3485 52.6757 34.0989 52.5025 33.8914 52.2848L21.6882 39.527C21.2822 39.1004 21.0623 38.5299 21.0769 37.9411C21.0914 37.3524 21.3393 36.7935 21.7659 36.3875C22.1925 35.9814 22.763 35.7615 23.3517 35.7761C23.9405 35.7906 24.4994 36.0385 24.9054 36.4651L37.1086 49.2229C37.3098 49.4341 37.4675 49.6828 37.5725 49.9549C37.6776 50.227 37.728 50.5172 37.7207 50.8088C37.7135 51.1004 37.6489 51.3877 37.5305 51.6543C37.4121 51.9209 37.2424 52.1616 37.0309 52.3625C36.6179 52.7549 36.0697 52.9733 35.5 52.9726Z" fill="black"/>
<path id="Vector_2" d="M35.5 52.9726C34.9302 52.9733 34.3821 52.7549 33.969 52.3625C33.7576 52.1615 33.5878 51.9209 33.4694 51.6543C33.351 51.3877 33.2864 51.1004 33.2792 50.8088C33.272 50.5172 33.3223 50.227 33.4274 49.9549C33.5324 49.6828 33.6901 49.434 33.8914 49.2229L46.0945 36.4651C46.5005 36.0385 47.0594 35.7906 47.6482 35.7761C48.237 35.7615 48.8074 35.9814 49.234 36.3875C49.6606 36.7935 49.9085 37.3524 49.9231 37.9411C49.9376 38.5299 49.7177 39.1004 49.3117 39.527L37.1086 52.2848C36.901 52.5025 36.6514 52.6757 36.3749 52.7939C36.0984 52.9122 35.8007 52.973 35.5 52.9726ZM35.5 35.2226C35.1992 35.223 34.9015 35.1622 34.625 35.0439C34.3485 34.9257 34.0989 34.7525 33.8914 34.5348L21.6882 21.777C21.2822 21.3504 21.0623 20.7799 21.0769 20.1911C21.0914 19.6024 21.3393 19.0435 21.7659 18.6375C22.1925 18.2314 22.763 18.0115 23.3517 18.0261C23.9405 18.0406 24.4994 18.2885 24.9054 18.7151L37.1086 31.4729C37.3098 31.6841 37.4675 31.9328 37.5725 32.2049C37.6776 32.477 37.728 32.7672 37.7207 33.0588C37.7135 33.3504 37.6489 33.6377 37.5305 33.9043C37.4121 34.1709 37.2424 34.4115 37.0309 34.6125C36.6179 35.0049 36.0697 35.2233 35.5 35.2226Z" fill="black"/>
<path id="Vector_3" d="M35.5 35.2226C34.9303 35.2233 34.3821 35.0049 33.9691 34.6125C33.7576 34.4115 33.5878 34.1709 33.4695 33.9043C33.3511 33.6377 33.2865 33.3504 33.2792 33.0588C33.272 32.7672 33.3224 32.477 33.4274 32.2049C33.5325 31.9328 33.6901 31.6841 33.8914 31.4729L46.0946 18.7151C46.5006 18.2885 47.0595 18.0406 47.6482 18.0261C48.237 18.0115 48.8075 18.2314 49.2341 18.6375C49.6607 19.0435 49.9086 19.6024 49.9231 20.1911C49.9377 20.7799 49.7178 21.3504 49.3117 21.777L37.1086 34.5348C36.9011 34.7525 36.6515 34.9257 36.375 35.0439C36.0984 35.1622 35.8008 35.223 35.5 35.2226Z" fill="black"/>
</g>
</svg>
